# WaveFront *.obj file (generated by Autodesk ATF)

mtllib CaliperBack.mtl

g CaliperBack

v 22.304424 -1.735391 0.000000
v 22.304424 -10.624861 0.000000
v 22.304424 -12.933996 0.000000
v 22.304424 -18.198641 0.000000
v 22.304424 -18.198641 3.000000
v 22.304424 -23.198641 3.000000
v 22.304424 -23.198641 -3.000000
v 22.304424 2.080298 -3.000000
v 22.304424 2.080298 3.000000
v 22.304424 -1.735391 3.000000
v 161.341612 -10.624861 0.000000
v 161.341612 -12.933996 0.000000
v -27.616669 -20.253092 -3.000000
v -27.616669 -20.253092 3.000000
v -28.886669 -18.259591 3.000000
v -28.886669 -18.259591 -3.000000
v -28.886669 -18.198641 -3.000000
v -28.886669 -18.198641 3.000000
v 161.341612 -10.624861 2.000000
v 161.341612 -12.933996 2.000000
v -23.159678 -10.624861 0.000000
v -15.695576 -10.624861 2.000000
v -22.334242 -1.735391 0.000000
v -22.334242 -1.735391 3.000000
v -22.334242 2.080298 0.000000
v -22.334242 2.080298 3.000000
v -28.888124 -5.188641 0.000000
v -35.442007 -0.599563 0.000000
v -35.442007 -0.599563 -3.000000
v -28.888124 -5.188641 -3.000000
v -30.302174 2.080298 0.000000
v -30.302174 5.149236 0.000000
v -28.888124 5.149236 0.000000
v -28.888124 19.357362 0.000000
v -33.967522 13.248784 0.000000
v -35.442007 9.457252 0.000000
v -28.888124 -17.915827 0.000000
v -28.780055 -17.937375 0.000000
v -28.688516 -17.998725 0.000000
v -28.627507 -18.090493 0.000000
v -28.606362 -18.198641 0.000000
v -23.159678 -12.933996 0.000000
v -28.888124 -17.915827 -3.000000
v -27.616669 -23.198641 0.000000
v -27.616669 -23.198641 -3.000000
v -14.695576 -23.198641 3.000000
v -14.695576 -23.198641 0.000000
v -28.780055 -17.937375 -3.000000
v -28.688516 -17.998725 -3.000000
v -28.627507 -18.090493 -3.000000
v -28.606362 -18.198641 -3.000000
v -15.695576 -12.933996 2.000000
v -30.302174 2.080298 -3.000000
v -34.084277 12.948558 -3.000000
v -33.967522 13.248784 -2.932592
v -30.302174 5.149236 -0.816402
v -34.084277 5.149236 -3.000000
v -30.302174 5.149236 -3.000000
v -35.442007 9.457252 -3.000000
v -23.179481 -55.678862 3.000000
v -23.765177 -56.203307 3.000000
v -28.788124 -60.700961 0.100000
v -28.888124 -60.790503 0.000000
v -23.179481 -55.678862 0.000000
v -22.114555 -54.081474 3.000000
v -27.616669 -30.333641 3.000000
v -28.888124 -31.417284 3.000000
v -28.888124 -51.099683 3.000000
v -23.765177 -51.099683 3.000000
v -28.788124 -51.099683 0.100000
v -28.888124 -51.099683 0.000000
v -28.888124 -31.417284 0.000000
v -27.616669 -30.333641 0.000000
v -22.114555 -54.081474 0.000000
vt 0.000000 0.230913 0.000000
vt 0.300000 1.501429 0.000000
vt 0.000000 1.119861 0.000000
vt -0.300000 1.501429 0.000000
vt -0.300000 1.119861 0.000000
vt 0.300000 -1.026465 0.000000
vt 0.000000 0.000000 0.000000
vt 0.000000 -0.526465 0.000000
vt -0.300000 -0.526465 0.000000
vt -0.300000 -1.026465 0.000000
vt 5.128744 0.115457 0.000000
vt -8.774975 0.115457 0.000000
vt 5.128744 -0.115457 0.000000
vt -8.774975 -0.115457 0.000000
vt 0.000000 0.000000 0.000000
vt 0.600000 0.000000 0.000000
vt 0.000000 0.236367 0.000000
vt 0.600000 0.236367 0.000000
vt -0.300000 0.096628 0.000000
vt 0.300000 0.096628 0.000000
vt -0.300000 0.102723 0.000000
vt 0.300000 0.102723 0.000000
vt -0.783238 0.200000 0.000000
vt -1.014151 0.200000 0.000000
vt -0.783238 0.000000 0.000000
vt -1.014151 0.000000 0.000000
vt 17.603719 0.000000 0.000000
vt 3.700000 0.000000 0.000000
vt 17.603719 -0.200000 0.000000
vt -0.100000 -0.200000 0.000000
vt -0.846410 0.000000 0.000000
vt 0.000000 0.000000 0.000000
vt 4.463867 0.000000 0.000000
vt 0.000000 0.300000 0.000000
vt 4.463867 0.300000 0.000000
vt -0.000000 0.000000 0.000000
vt 0.381569 0.000000 0.000000
vt -0.000000 0.300000 0.000000
vt 0.381569 0.300000 0.000000
vt 4.081933 0.190784 0.000000
vt -0.381933 0.190784 0.000000
vt 4.081933 -0.190784 0.000000
vt -0.381933 -0.190784 0.000000
vt -0.000000 -2.219336 0.000000
vt 0.300000 -2.219336 0.000000
vt -0.000000 -1.419255 0.000000
vt 0.300000 -1.419255 0.000000
vt 0.983082 -0.863853 0.000000
vt 0.186289 -0.863853 0.000000
vt 0.983082 -1.245422 0.000000
vt 0.327694 -1.590747 0.000000
vt 0.900539 -2.134369 0.000000
vt 0.327694 -2.863466 0.000000
vt 0.900539 -2.365283 0.000000
vt 0.338501 -2.865621 0.000000
vt 0.347655 -2.871756 0.000000
vt -0.327694 -1.131839 0.000000
vt 0.186289 -0.556959 0.000000
vt -0.327694 -0.126158 0.000000
vt 0.327694 -0.556959 0.000000
vt -0.180246 0.252995 0.000000
vt 0.327694 0.863853 0.000000
vt 0.353756 -2.880932 0.000000
vt 0.355870 -2.891747 0.000000
vt 5.446949 -2.891747 0.000000
vt 5.446949 -2.365283 0.000000
vt 5.446949 -2.134369 0.000000
vt 5.446949 -1.245422 0.000000
vt 0.599922 0.300000 0.000000
vt -0.672797 0.300000 0.000000
vt 0.599922 0.000000 0.000000
vt -0.672797 0.000000 0.000000
vt 1.292109 0.000000 0.000000
vt 1.292109 0.300000 0.000000
vt 0.000000 0.000000 0.000000
vt -3.700000 0.300000 0.000000
vt -3.700000 -0.300000 0.000000
vt 0.000000 -0.300000 0.000000
vt 0.000000 0.044259 0.000000
vt -0.300000 0.044259 0.000000
vt 0.000000 0.033168 0.000000
vt -0.300000 0.033168 0.000000
vt -0.300000 0.022077 0.000000
vt 0.000000 0.022077 0.000000
vt -0.300000 0.010986 0.000000
vt 0.000000 0.010986 0.000000
vt 0.000000 -0.000105 0.000000
vt -0.300000 -0.000105 0.000000
vt -0.572741 -0.230913 0.000000
vt 0.200000 -0.230913 0.000000
vt -0.572741 0.000000 0.000000
vt 0.200000 0.000000 0.000000
vt 8.774975 0.115457 0.000000
vt -8.928744 0.115457 0.000000
vt 8.774975 -0.115457 0.000000
vt -8.928744 -0.115457 0.000000
vt 0.000000 4.992109 0.000000
vt 0.000000 -0.098969 0.000000
vt 0.300000 4.992109 0.000000
vt 0.300000 -0.127000 0.000000
vt -0.300000 -0.127000 0.000000
vt -0.300000 -0.098969 0.000000
vt 0.513983 0.000000 0.000000
vt 1.310777 0.000000 0.000000
vt 0.513983 0.300000 0.000000
vt 5.774643 0.300000 0.000000
vt 5.774643 -0.300000 0.000000
vt 1.310777 -0.300000 0.000000
vt 0.053770 0.000000 0.000000
vt 0.053770 -0.200000 0.000000
vt 13.957489 0.000000 0.000000
vt 17.757489 -0.200000 0.000000
vt 18.503899 0.000000 0.000000
vt 0.640880 0.600000 0.000000
vt 0.610858 0.586518 0.000000
vt 1.420813 0.600000 0.000000
vt 1.420813 0.163280 0.000000
vt 0.000000 -0.000000 0.000000
vt 1.420813 0.000000 0.000000
vt -0.519615 0.300000 0.000000
vt -0.141405 0.081640 0.000000
vt -0.141405 0.300000 0.000000
vt 0.141405 0.000000 0.000000
vt 0.141405 0.081640 0.000000
vt 0.000000 -0.000000 0.000000
vt 0.794450 0.000000 0.000000
vt 0.000000 0.293259 0.000000
vt 0.000000 0.000000 0.000000
vt 0.406815 0.293259 0.000000
vt 0.374602 0.300000 0.000000
vt 0.406815 0.000000 0.000000
vt 0.000000 0.000000 0.000000
vt 0.000000 0.300000 0.000000
vt -0.267986 0.000000 0.000000
vt 0.737695 0.000000 0.000000
vt -0.267986 0.300000 0.000000
vt 0.737695 0.300000 0.000000
vt 0.000000 0.000000 0.000000
vt 0.306894 0.000000 0.000000
vt 0.000000 0.081640 0.000000
vt 0.306894 0.300000 0.000000
vt 0.000000 0.300000 0.000000
vt 0.327694 -1.131839 0.000000
vt -0.186289 -0.863853 0.000000
vt -0.327694 -1.590747 0.000000
vt -5.446949 -0.863853 0.000000
vt -5.446949 -3.391747 0.000000
vt 0.191921 -0.556959 0.000000
vt 0.327694 -0.126158 0.000000
vt 0.191921 0.222973 0.000000
vt -0.186289 -0.556959 0.000000
vt -0.454840 -3.391747 0.000000
vt -0.454840 -3.097192 0.000000
vt -0.353756 -2.880932 0.000000
vt -0.347655 -2.871756 0.000000
vt -0.338501 -2.865621 0.000000
vt -0.355870 -2.891747 0.000000
vt -0.327840 -2.897842 0.000000
vt -0.327840 -2.891747 0.000000
vt -0.327694 -2.863466 0.000000
vt -0.000000 0.300000 0.000000
vt -0.078618 0.300000 0.000000
vt -0.000000 0.000000 0.000000
vt -0.752850 0.010000 0.000000
vt -0.766273 0.000000 0.000000
vt -0.197333 -1.676456 0.000000
vt -0.138763 -1.624011 0.000000
vt -0.197333 -1.166093 0.000000
vt -0.032271 -1.464272 0.000000
vt 0.709627 1.624011 0.000000
vt 4.409627 1.624011 0.000000
vt 4.409627 2.124011 0.000000
vt -0.709482 2.124011 0.000000
vt -0.582482 1.918566 0.000000
vt -0.709482 2.117916 0.000000
vt -0.582482 0.910511 0.000000
vt -0.709627 0.802147 0.000000
vt -0.709627 -1.166093 0.000000
vt -0.007071 -0.726811 0.000000
vt 0.007071 -0.717857 0.000000
vt -0.007071 0.242270 0.000000
vt 0.007071 0.242270 0.000000
vt -0.000000 0.300000 0.000000
vt -1.968240 0.300000 0.000000
vt -0.000000 0.000000 0.000000
vt -1.968240 0.000000 0.000000
vt 0.304568 0.484541 0.000000
vt -0.275432 0.484541 0.000000
vt 0.304568 -0.025821 0.000000
vt -0.275432 -0.475587 0.000000
vt -0.058570 0.300000 0.000000
vt -0.570864 0.300000 0.000000
vt -0.560864 0.010000 0.000000
vt -0.570864 0.000000 0.000000
vt -0.167059 0.000000 0.000000
vt -0.000000 0.000000 0.000000
vt -0.167059 0.300000 0.000000
vt -0.000000 0.300000 0.000000
vt -0.191982 0.000000 0.000000
vt -0.000000 0.000000 0.000000
vt -0.191982 0.300000 0.000000
vt -0.000000 0.300000 0.000000
vt -3.176146 0.000000 0.000000
vt -0.000000 0.000000 0.000000
vt -3.176146 0.300000 0.000000
vt -0.000000 0.300000 0.000000
vt -0.000000 0.300000 0.000000
vt -1.008055 0.300000 0.000000
vt -0.713500 0.000000 0.000000
vt -1.008055 -0.300000 0.000000
vt -0.713500 -0.300000 0.000000
vt -0.000000 0.000000 0.000000
vt 0.582482 1.624011 0.000000
vt -0.709627 1.624011 0.000000
vt 0.582482 0.910511 0.000000
vt 0.032271 -1.464272 0.000000
vt 0.709627 -1.166093 0.000000
vt 0.138763 -1.624011 0.000000
vt 0.709627 -2.135175 0.000000
vt 0.709627 0.802147 0.000000
vn 0.100000 0.000000 0.000000
vn 0.100000 0.000000 0.000000
vn 0.100000 0.000000 0.000000
vn 0.100000 0.000000 0.000000
vn 0.100000 0.000000 0.000000
vn 0.100000 0.000000 0.000000
vn 0.100000 0.000000 0.000000
vn 0.100000 0.000000 0.000000
vn 0.100000 0.000000 0.000000
vn 0.100000 0.000000 0.000000
vn 0.000000 0.000000 -0.100000
vn 0.000000 0.000000 -0.100000
vn 0.000000 0.000000 -0.100000
vn 0.000000 0.000000 -0.100000
vn -0.084339 -0.053730 0.000000
vn -0.084339 -0.053730 0.000000
vn -0.084339 -0.053730 0.000000
vn -0.084339 -0.053730 0.000000
vn -0.100000 0.000000 0.000000
vn -0.100000 0.000000 0.000000
vn -0.100000 0.000000 0.000000
vn -0.100000 0.000000 0.000000
vn 0.100000 0.000000 0.000000
vn 0.100000 0.000000 0.000000
vn 0.100000 0.000000 0.000000
vn 0.100000 0.000000 0.000000
vn 0.000000 0.100000 0.000000
vn 0.000000 0.100000 0.000000
vn 0.000000 0.100000 0.000000
vn 0.000000 0.100000 0.000000
vn 0.000000 0.100000 0.000000
vn 0.000000 -0.100000 0.000000
vn 0.000000 -0.100000 0.000000
vn 0.000000 -0.100000 0.000000
vn 0.000000 -0.100000 0.000000
vn -0.100000 0.000000 0.000000
vn -0.100000 0.000000 0.000000
vn -0.100000 0.000000 0.000000
vn -0.100000 0.000000 0.000000
vn 0.000000 0.000000 0.100000
vn 0.000000 0.000000 0.100000
vn 0.000000 0.000000 0.100000
vn 0.000000 0.000000 0.100000
vn -0.057358 -0.081915 0.000000
vn -0.057358 -0.081915 0.000000
vn -0.057358 -0.081915 0.000000
vn -0.057358 -0.081915 0.000000
vn 0.000000 0.000000 0.100000
vn 0.000000 0.000000 0.100000
vn 0.000000 0.000000 0.100000
vn 0.000000 0.000000 0.100000
vn 0.000000 0.000000 0.100000
vn 0.000000 0.000000 0.100000
vn 0.000000 0.000000 0.100000
vn 0.000000 0.000000 0.100000
vn 0.000000 0.000000 0.100000
vn 0.000000 0.000000 0.100000
vn 0.000000 0.000000 0.100000
vn 0.000000 0.000000 0.100000
vn 0.000000 0.000000 0.100000
vn 0.000000 0.000000 0.100000
vn 0.000000 0.000000 0.100000
vn 0.000000 0.000000 0.100000
vn 0.000000 0.000000 0.100000
vn 0.000000 0.000000 0.100000
vn 0.000000 0.000000 0.100000
vn 0.000000 0.000000 0.100000
vn 0.000000 0.000000 0.100000
vn -0.100000 0.000000 0.000000
vn -0.100000 0.000000 0.000000
vn -0.100000 0.000000 0.000000
vn -0.100000 0.000000 0.000000
vn -0.000000 -0.100000 0.000000
vn -0.000000 -0.100000 0.000000
vn -0.000000 -0.100000 0.000000
vn -0.000000 -0.100000 0.000000
vn -0.000000 -0.100000 0.000000
vn -0.000000 -0.100000 0.000000
vn -0.000000 -0.100000 0.000000
vn -0.000000 -0.100000 0.000000
vn -0.038354 -0.092352 0.000000
vn -0.038354 -0.092352 0.000000
vn -0.070842 -0.070579 0.000000
vn -0.070842 -0.070579 0.000000
vn -0.092495 -0.038010 0.000000
vn -0.092495 -0.038010 0.000000
vn -0.099999 0.000373 0.000000
vn -0.099999 0.000373 0.000000
vn -0.025882 0.000000 0.096593
vn -0.025882 0.000000 0.096593
vn -0.025882 0.000000 0.096593
vn -0.025882 0.000000 0.096593
vn 0.000000 0.000000 0.100000
vn 0.000000 0.000000 0.100000
vn 0.000000 0.000000 0.100000
vn 0.000000 0.000000 0.100000
vn 0.000000 0.100000 0.000000
vn 0.000000 0.100000 0.000000
vn 0.000000 0.100000 0.000000
vn 0.000000 0.100000 0.000000
vn 0.000000 0.100000 0.000000
vn 0.000000 0.100000 0.000000
vn 0.000000 0.100000 0.000000
vn 0.000000 0.100000 0.000000
vn 0.000000 0.100000 0.000000
vn 0.000000 0.100000 0.000000
vn 0.000000 0.100000 0.000000
vn 0.000000 0.100000 0.000000
vn 0.000000 -0.100000 0.000000
vn 0.000000 -0.100000 0.000000
vn 0.000000 -0.100000 0.000000
vn 0.000000 -0.100000 0.000000
vn 0.000000 -0.100000 0.000000
vn 0.050000 0.000000 -0.086603
vn 0.050000 0.000000 -0.086603
vn 0.050000 0.000000 -0.086603
vn 0.050000 0.000000 -0.086603
vn 0.050000 0.000000 -0.086603
vn 0.050000 0.000000 -0.086603
vn -0.000000 0.100000 -0.000000
vn -0.000000 0.100000 -0.000000
vn -0.000000 0.100000 -0.000000
vn 0.000000 -0.100000 0.000000
vn 0.000000 -0.100000 0.000000
vn 0.000000 -0.100000 0.000000
vn -0.076891 0.063936 0.000000
vn -0.076891 0.063936 0.000000
vn -0.076891 0.063936 0.000000
vn -0.093200 0.036245 0.000000
vn -0.093200 0.036245 0.000000
vn -0.093200 0.036245 0.000000
vn -0.093200 0.036245 0.000000
vn -0.093200 0.036245 0.000000
vn -0.100000 0.000000 0.000000
vn -0.100000 0.000000 0.000000
vn -0.100000 0.000000 0.000000
vn -0.100000 0.000000 0.000000
vn 0.100000 0.000000 0.000000
vn 0.100000 0.000000 0.000000
vn 0.100000 0.000000 0.000000
vn 0.100000 0.000000 0.000000
vn 0.100000 0.000000 0.000000
vn 0.000000 0.000000 -0.100000
vn 0.000000 0.000000 -0.100000
vn 0.000000 0.000000 -0.100000
vn 0.000000 0.000000 -0.100000
vn 0.000000 0.000000 -0.100000
vn 0.000000 0.000000 -0.100000
vn 0.000000 0.000000 -0.100000
vn 0.000000 0.000000 -0.100000
vn 0.000000 0.000000 -0.100000
vn 0.000000 0.000000 -0.100000
vn 0.000000 0.000000 -0.100000
vn 0.000000 0.000000 -0.100000
vn 0.000000 0.000000 -0.100000
vn 0.000000 0.000000 -0.100000
vn 0.000000 0.000000 -0.100000
vn 0.000000 0.000000 -0.100000
vn 0.000000 0.000000 -0.100000
vn 0.000000 0.000000 -0.100000
vn 0.066708 -0.074499 0.000000
vn 0.066708 -0.074499 0.000000
vn 0.066708 -0.074499 0.000000
vn 0.066708 -0.074499 0.000000
vn 0.066708 -0.074499 0.000000
vn 0.000000 0.000000 0.100000
vn 0.000000 0.000000 0.100000
vn 0.000000 0.000000 0.100000
vn 0.000000 0.000000 0.100000
vn 0.000000 0.000000 0.100000
vn 0.000000 0.000000 0.100000
vn 0.000000 0.000000 0.100000
vn 0.000000 0.000000 0.100000
vn 0.000000 0.000000 0.100000
vn 0.000000 0.000000 0.100000
vn 0.000000 0.000000 0.100000
vn 0.000000 0.000000 0.100000
vn 0.000000 0.000000 0.100000
vn -0.070711 0.000000 0.070711
vn -0.070711 0.000000 0.070711
vn -0.070711 0.000000 0.070711
vn -0.070711 0.000000 0.070711
vn -0.100000 0.000000 0.000000
vn -0.100000 0.000000 0.000000
vn -0.100000 0.000000 0.000000
vn -0.100000 0.000000 0.000000
vn -0.050000 0.000000 0.086603
vn -0.050000 0.000000 0.086603
vn -0.050000 0.000000 0.086603
vn -0.050000 0.000000 0.086603
vn 0.000000 -0.100000 0.000000
vn 0.000000 -0.100000 0.000000
vn 0.000000 -0.100000 0.000000
vn 0.000000 -0.100000 0.000000
vn -0.064866 0.076108 0.000000
vn -0.064866 0.076108 0.000000
vn -0.064866 0.076108 0.000000
vn -0.064866 0.076108 0.000000
vn 0.083205 -0.055470 0.000000
vn 0.083205 -0.055470 0.000000
vn 0.083205 -0.055470 0.000000
vn 0.083205 -0.055470 0.000000
vn 0.097234 -0.023358 0.000000
vn 0.097234 -0.023358 0.000000
vn 0.097234 -0.023358 0.000000
vn 0.097234 -0.023358 0.000000
vn -0.100000 0.000000 0.000000
vn -0.100000 0.000000 0.000000
vn -0.100000 0.000000 0.000000
vn -0.100000 0.000000 0.000000
vn -0.100000 0.000000 0.000000
vn -0.100000 0.000000 0.000000
vn 0.000000 0.000000 -0.100000
vn 0.000000 0.000000 -0.100000
vn 0.000000 0.000000 -0.100000
vn 0.000000 0.000000 -0.100000
vn 0.000000 0.000000 -0.100000
vn 0.000000 0.000000 -0.100000
vn 0.000000 0.000000 -0.100000
vn 0.000000 0.000000 -0.100000
usemtl Steel_-_Satin
f 2/1/1 8/2/2 1/3/3
f 1/3/3 8/2/2 9/4/4
f 1/3/3 9/4/4 10/5/5
f 8/2/2 2/1/1 7/6/6
f 7/6/6 2/1/1 3/7/7
f 7/6/6 3/7/7 4/8/8
f 5/9/9 6/10/10 4/8/8
f 4/8/8 6/10/10 7/6/6
f 2/11/11 11/12/12 3/13/13
f 3/13/13 11/12/12 12/14/14
f 13/15/15 14/16/16 16/17/17
f 16/17/17 14/16/16 15/18/18
f 16/19/19 15/20/20 17/21/21
f 17/21/21 15/20/20 18/22/22
f 19/23/23 20/24/24 11/25/25
f 11/25/25 20/24/24 12/26/26
f 11/27/27 2/28/28 19/29/29
f 19/29/29 2/28/28 22/30/30
f 22/30/30 2/28/28 21/31/31
f 23/32/32 1/33/33 24/34/34
f 24/34/34 1/33/33 10/35/35
f 25/36/36 23/37/37 26/38/38
f 26/38/38 23/37/37 24/39/39
f 9/40/40 26/41/41 10/42/42
f 10/42/42 26/41/41 24/43/43
f 28/44/44 29/45/45 27/46/46
f 27/46/46 29/45/45 30/47/47
f 25/48/48 31/49/49 23/50/50
f 23/50/50 31/49/49 27/51/51
f 23/50/50 27/51/51 21/52/52
f 21/52/52 27/51/51 37/53/53
f 21/52/52 37/53/53 42/54/54
f 42/54/54 37/53/53 38/55/55
f 42/54/54 38/55/55 39/56/56
f 27/51/51 31/49/49 28/57/57
f 28/57/57 31/49/49 32/58/58
f 28/57/57 32/58/58 36/59/59
f 36/59/59 32/58/58 33/60/60
f 36/59/59 33/60/60 35/61/61
f 35/61/61 33/60/60 34/62/62
f 39/56/56 40/63/63 42/54/54
f 42/54/54 40/63/63 41/64/64
f 42/54/54 41/64/64 4/65/65
f 4/65/65 3/66/66 42/54/54
f 21/52/52 2/67/67 23/50/50
f 23/50/50 2/67/67 1/68/68
f 30/69/69 43/70/70 27/71/71
f 27/71/71 43/70/70 37/72/72
f 44/73/73 45/74/74 47/75/75
f 47/75/75 45/74/74 7/76/76
f 47/75/75 7/76/76 6/77/77
f 6/77/77 46/78/78 47/75/75
f 37/79/79 43/80/80 38/81/81
f 38/81/81 43/80/80 48/82/82
f 38/81/81 48/82/82 49/83/83
f 38/81/81 49/83/83 39/84/84
f 39/84/84 49/83/83 50/85/85
f 39/84/84 50/85/85 40/86/86
f 40/86/86 50/85/85 41/87/87
f 41/87/87 50/85/85 51/88/88
f 42/89/89 52/90/90 21/91/91
f 21/91/91 52/90/90 22/92/92
f 19/93/93 22/94/94 20/95/95
f 20/95/95 22/94/94 52/96/96
f 4/97/97 41/98/98 5/99/99
f 5/99/99 41/98/98 18/100/100
f 18/100/100 41/98/98 17/101/101
f 17/101/101 41/98/98 51/102/102
f 31/103/103 25/104/104 53/105/105
f 53/105/105 25/104/104 8/106/106
f 8/106/106 25/104/104 9/107/107
f 9/107/107 25/104/104 26/108/108
f 12/109/109 20/110/110 3/111/111
f 3/111/111 20/110/110 52/112/112
f 3/111/111 52/112/112 42/113/113
f 54/114/114 55/115/115 57/116/116
f 57/116/116 55/115/115 56/117/117
f 56/117/117 55/115/115 34/118/118
f 56/117/117 34/118/118 33/119/119
f 57/120/120 56/121/121 58/122/122
f 32/123/123 56/124/124 33/125/125
f 34/126/126 55/127/127 35/128/128
f 55/129/129 54/130/130 35/131/131
f 35/131/131 54/130/130 36/132/132
f 36/132/132 54/130/130 59/133/133
f 28/134/134 36/135/135 29/136/136
f 29/136/136 36/135/135 59/137/137
f 32/138/138 31/139/139 56/140/140
f 56/140/140 31/139/139 53/141/141
f 56/140/140 53/141/141 58/142/142
f 29/143/143 53/144/144 30/145/145
f 30/145/145 53/144/144 8/146/146
f 30/145/145 8/146/146 7/147/147
f 53/144/144 29/143/143 57/148/148
f 57/148/148 29/143/143 59/149/149
f 57/148/148 59/149/149 54/150/150
f 57/148/148 58/151/151 53/144/144
f 45/152/152 13/153/153 7/147/147
f 7/147/147 13/153/153 50/154/154
f 7/147/147 50/154/154 30/145/145
f 30/145/145 50/154/154 49/155/155
f 30/145/145 49/155/155 48/156/156
f 50/154/154 13/153/153 51/157/157
f 51/157/157 13/153/153 16/158/158
f 51/157/157 16/158/158 17/159/159
f 48/156/156 43/160/160 30/145/145
f 60/161/161 61/162/162 64/163/163
f 64/163/163 61/162/162 62/164/164
f 64/163/163 62/164/164 63/165/165
f 61/166/166 60/167/167 69/168/168
f 69/168/168 60/167/167 65/169/169
f 69/168/168 65/169/169 46/170/170
f 6/171/171 5/172/172 46/170/170
f 46/170/170 5/172/172 18/173/173
f 46/170/170 18/173/173 14/174/174
f 14/174/174 18/173/173 15/175/175
f 14/174/174 66/176/176 46/170/170
f 46/170/170 66/176/176 69/168/168
f 66/176/176 67/177/177 69/168/168
f 69/168/168 67/177/177 68/178/178
f 63/179/179 62/180/180 71/181/181
f 71/181/181 62/180/180 70/182/182
f 68/183/183 67/184/184 71/185/185
f 71/185/185 67/184/184 72/186/186
f 69/187/187 70/188/188 61/189/189
f 61/189/189 70/188/188 62/190/190
f 69/191/191 68/192/192 70/193/193
f 70/193/193 68/192/192 71/194/194
f 73/195/195 72/196/196 66/197/197
f 66/197/197 72/196/196 67/198/198
f 64/199/199 74/200/200 60/201/201
f 60/201/201 74/200/200 65/202/202
f 74/203/203 47/204/204 65/205/205
f 65/205/205 47/204/204 46/206/206
f 66/207/207 14/208/208 44/209/209
f 44/209/209 14/208/208 13/210/210
f 44/209/209 13/210/210 45/211/211
f 44/209/209 73/212/212 66/207/207
f 44/213/213 47/214/214 73/215/215
f 73/215/215 47/214/214 74/216/216
f 73/215/215 74/216/216 71/217/217
f 71/217/217 74/216/216 64/218/218
f 71/217/217 64/218/218 63/219/219
f 71/217/217 72/220/220 73/215/215
# 74 vertices
# 220 texture params
# 220 normals
# 144 facets

# 1 groups
